<svg xmlns="http://www.w3.org/2000/svg" xmlns:xlink="http://www.w3.org/1999/xlink" width="35" height="15" version="1.1" viewBox="0 0 35 15"><title>KZT</title><desc>Created with Sketch.</desc><g id="Page-1" fill="none" fill-rule="evenodd" stroke="none" stroke-width="1"><g id="KZT" fill="#4A4A4A"><path d="M10.8891602,15 L8.83837891,15 L3.37304687,7.72998047 L1.80419922,9.12451172 L1.80419922,15 L0.0610351562,15 L0.0610351562,0.0087890625 L1.80419922,0.0087890625 L1.80419922,7.44287109 L8.60253906,0.0087890625 L10.6635742,0.0087890625 L4.63427734,6.52001953 L10.8891602,15 Z M22.0351562,15 L11.7299805,15 L11.7299805,13.6362305 L19.6870117,1.57763672 L11.9760742,1.57763672 L11.9760742,0.0087890625 L21.8095703,0.0087890625 L21.8095703,1.37255859 L13.8525391,13.4208984 L22.0351562,13.4208984 L22.0351562,15 Z M29.5512695,15 L27.8081055,15 L27.8081055,1.55712891 L23.0605469,1.55712891 L23.0605469,0.0087890625 L34.2988281,0.0087890625 L34.2988281,1.55712891 L29.5512695,1.55712891 L29.5512695,15 Z"/></g></g></svg>