<svg xmlns="http://www.w3.org/2000/svg" xmlns:xlink="http://www.w3.org/1999/xlink" width="20" height="24" version="1.1" viewBox="0 0 20 24"><title>lock</title><desc>Created with Sketch.</desc><g id="Page-1" fill="none" fill-rule="evenodd" stroke="none" stroke-width="1"><g id="platron_payment-card" transform="translate(-300.000000, -126.000000)"><g id="Content" transform="translate(30.000000, 100.000000)"><g id="Title" transform="translate(270.000000, 20.000000)"><g id="icon-lock" transform="translate(0.000000, 6.000000)"><g id="lock"><path id="Oval-1" fill="#93A5A6" d="M3,14 L17,14 L17,7 C17,3.13400675 13.8659932,0 10,0 C6.13400675,0 3,3.13400675 3,7 L3,14 Z"/><path id="Oval-2" fill="#FFF" d="M6,11 L14,11 L14,7 C14,4.790861 12.209139,3 10,3 C7.790861,3 6,4.790861 6,7 L6,11 Z"/><rect id="Rectangle-69" width="20" height="14" x="0" y="10" fill="#FB9B00" rx="2"/><rect id="Rectangle-71" width="14" height="2" x="3" y="12" fill="#FFF" opacity=".5" rx="2"/><rect id="Rectangle-71" width="14" height="2" x="3" y="16" fill="#FFF" opacity=".5" rx="2"/><rect id="Rectangle-71" width="14" height="2" x="3" y="20" fill="#FFF" opacity=".5" rx="2"/></g></g></g></g></g></g></svg>