<svg xmlns="http://www.w3.org/2000/svg" xmlns:xlink="http://www.w3.org/1999/xlink" width="97" height="21" version="1.1" viewBox="0 0 97 21"><title>payment-receipt copy 5</title><desc>Created with Sketch.</desc><g id="Page-1" fill="none" fill-rule="evenodd" stroke="none" stroke-width="1"><g id="payment-receipt-copy-5" transform="translate(0.000000, -2.000000)"><g id="Page-1"><g id="platron_payment-banks"><g id="Content"><g id="Оплата-квитанцией-в--+-Imported-Layers"><g id="Оплата-квитанцией-в-" fill="#333" font-family="Open Sans" font-size="7.343" font-weight="normal" transform="translate(26.000000, 0.000000)"><text id="Оплата-квитанцией"><tspan x="0" y="8" fill="#000">Оплата </tspan> <tspan x="27.974" y="8" fill="#000" font-size="7.343">квитанцией</tspan></text><text id="в-банке"><tspan x="0" y="22" fill="#000">в банке</tspan></text></g><g id="Imported-Layers" transform="translate(0.000000, 2.000000)"><g id="path-1-link" fill="#00C7F4" fill-opacity=".35"><path id="path-1" d="M3,13 L15,13 L15,15 L3,15 L3,13 L3,13 Z M3,9 L15,9 L15,11 L3,11 L3,9 L3,9 Z M3,5 L15,5 L15,7 L3,7 L3,5 L3,5 Z M0,20 L1.5,18.5 L3,20 L4.5,18.5 L6,20 L7.5,18.5 L9,20 L10.5,18.5 L12,20 L13.5,18.5 L15,20 L16.5,18.5 L18,20 L18,0 L16.5,1.5 L15,0 L13.5,1.5 L12,0 L10.5,1.5 L9,0 L7.5,1.5 L6,0 L4.5,1.5 L3,0 L1.5,1.5 L0,0 L0,20 L0,20 Z"/></g><g id="path-1-link" fill="#000" fill-opacity=".147"><path id="path-1" d="M3,13 L15,13 L15,15 L3,15 L3,13 L3,13 Z M3,9 L15,9 L15,11 L3,11 L3,9 L3,9 Z M3,5 L15,5 L15,7 L3,7 L3,5 L3,5 Z M0,20 L1.5,18.5 L3,20 L4.5,18.5 L6,20 L7.5,18.5 L9,20 L10.5,18.5 L12,20 L13.5,18.5 L15,20 L16.5,18.5 L18,20 L18,0 L16.5,1.5 L15,0 L13.5,1.5 L12,0 L10.5,1.5 L9,0 L7.5,1.5 L6,0 L4.5,1.5 L3,0 L1.5,1.5 L0,0 L0,20 L0,20 Z"/></g></g></g></g></g></g></g></g></svg>