<svg xmlns="http://www.w3.org/2000/svg" xmlns:xlink="http://www.w3.org/1999/xlink" width="106" height="25" version="1.1" viewBox="0 0 106 25"><title>payment-receipt copy 16</title><desc>Created with Sketch.</desc><g id="Page-1" fill="none" fill-rule="evenodd" stroke="none" stroke-width="1"><g id="payment-receipt-copy-16"><g id="Page-1"><g id="platron_payment-banks"><g id="Content"><g id="Оплата-квитанцией-в--+-Imported-Layers"><g id="Оплата-квитанцией-в-" fill="#333" font-family="Open Sans" font-size="7.343" font-weight="normal" transform="translate(26.000000, 1.000000)"><text id="Оплата-с-баланса"><tspan x="0" y="8" fill="#000">Оплата с баланса</tspan></text><text id="мобильного-телефона"><tspan x="0" y="22" fill="#000">мобильного телефона</tspan></text></g><g id="Group"><rect id="Rectangle-22" width="18" height="19" x="0" y="4" fill="#8DC8D5" rx="4"/><rect id="Rectangle-22-Copy-2" width="3" height="6" x="15" y="0" fill="#8DC8D5" rx="2"/><path id="Rectangle-22-Copy" fill="#FFF" d="M2,7.99791312 C2,6.89449617 2.89706013,6 4.00585866,6 L13.9941413,6 C15.1019465,6 16,6.89826062 16,7.99791312 L16,10.0020869 C16,11.1055038 15.1029399,12 13.9941413,12 L4.00585866,12 C2.89805351,12 2,11.1017394 2,10.0020869 L2,7.99791312 Z"/><ellipse id="Oval-1" cx="3.5" cy="15.491" fill="#FFF" rx="1.5" ry="1.491"/><ellipse id="Oval-1-Copy-3" cx="3.5" cy="19.491" fill="#FFF" rx="1.5" ry="1.491"/><ellipse id="Oval-1-Copy" cx="9" cy="15.491" fill="#FFF" rx="1.5" ry="1.491"/><ellipse id="Oval-1-Copy-4" cx="9" cy="19.491" fill="#FFF" rx="1.5" ry="1.491"/><ellipse id="Oval-1-Copy-2" cx="14.5" cy="15.491" fill="#FFF" rx="1.5" ry="1.491"/><ellipse id="Oval-1-Copy-5" cx="14.5" cy="19.491" fill="#FFF" rx="1.5" ry="1.491"/></g></g></g></g></g></g></g></svg>